<svg xmlns="http://www.w3.org/2000/svg" version="1.1" xmlns:xlink="http://www.w3.org/1999/xlink" width="1000" height="1000"><g clip-path="url(#SvgjsClipPath1067)"><rect width="1000" height="1000" fill="#ffffff"></rect><g transform="matrix(15.384615384615385,0,0,15.384615384615385,0,223.0769230769231)"><svg xmlns="http://www.w3.org/2000/svg" version="1.1" xmlns:xlink="http://www.w3.org/1999/xlink" width="65" height="36"><svg xmlns="http://www.w3.org/2000/svg" version="1.1" viewBox="0 0 65 36">
  <defs>
    <style>
      .cls-1 {
        fill: #221f1f;
      }

      .cls-2 {
        fill: #91c63f;
      }

      .cls-3 {
        fill: #e0aa73;
      }

      .cls-4 {
        fill: #e48624;
      }

      .cls-5 {
        stroke: #fff;
        stroke-width: .04px;
      }

      .cls-5, .cls-6, .cls-7 {
        fill: none;
        stroke-miterlimit: 10;
      }

      .cls-8 {
        fill: #e08d3b;
      }

      .cls-6 {
        stroke: #ddede0;
        stroke-width: .08px;
      }

      .cls-7 {
        stroke: #e08d3b;
        stroke-width: .2px;
      }
    </style>
  <clipPath id="SvgjsClipPath1067"><rect width="1000" height="1000" x="0" y="0" rx="150" ry="150"></rect></clipPath></defs>
  <!-- Generator: Adobe Illustrator 28.7.1, SVG Export Plug-In . SVG Version: 1.2.0 Build 142)  -->
  <g>
    <g id="Layer_1">
      <g>
        <g>
          <line class="cls-7" x1="37.27" y1="5.78" x2="37.39" y2="1.5"></line>
          <line class="cls-7" x1="39.17" y1="6.74" x2="41.56" y2="5.18"></line>
          <line class="cls-7" x1="39.51" y1="7.29" x2="42.26" y2="6.52"></line>
          <line class="cls-7" x1="32.25" y1="6.49" x2="34.96" y2="7.41"></line>
          <line class="cls-7" x1="32.94" y1="5.16" x2="35.33" y2="6.74"></line>
          <line class="cls-7" x1="34.62" y1="3.61" x2="36.2" y2="5.99"></line>
          <line class="cls-7" x1="36.35" y1="4.57" x2="36.7" y2="5.84"></line>
          <line class="cls-7" x1="34.8" y1="5.37" x2="35.68" y2="6.35"></line>
          <line class="cls-7" x1="33.91" y1="6.5" x2="35.08" y2="7.1"></line>
          <line class="cls-7" x1="33.53" y1="7.63" x2="34.83" y2="7.88"></line>
          <line class="cls-7" x1="38.26" y1="4.59" x2="37.93" y2="5.87"></line>
          <line class="cls-7" x1="39.92" y1="5.59" x2="38.98" y2="6.52"></line>
          <line class="cls-7" x1="40.58" y1="6.52" x2="39.35" y2="7.01"></line>
          <line class="cls-7" x1="40.91" y1="7.46" x2="39.6" y2="7.59"></line>
          <line class="cls-8" x1="40.98" y1="8.29" x2="39.67" y2="8.24"></line>
          <line class="cls-7" x1="36.2" y1="5.31" x2="36.43" y2="5.91"></line>
          <line class="cls-7" x1="35.51" y1="5.62" x2="35.91" y2="6.13"></line>
          <line class="cls-7" x1="35.03" y1="6.09" x2="35.5" y2="6.53"></line>
          <line class="cls-7" x1="36.9" y1="5.14" x2="36.96" y2="5.78"></line>
          <line class="cls-7" x1="37.69" y1="5.16" x2="37.59" y2="5.8"></line>
          <line class="cls-7" x1="37.47" y1="5.56" x2="37.44" y2="5.77"></line>
          <line class="cls-7" x1="37.11" y1="5.56" x2="37.12" y2="5.78"></line>
          <line class="cls-7" x1="36.82" y1="5.58" x2="36.85" y2="5.79"></line>
          <line class="cls-7" x1="36.49" y1="5.65" x2="36.56" y2="5.86"></line>
          <line class="cls-7" x1="36.23" y1="5.74" x2="36.32" y2="5.94"></line>
          <line class="cls-7" x1="35.94" y1="5.87" x2="36.05" y2="6.06"></line>
          <line class="cls-7" x1="35.66" y1="6.06" x2="35.78" y2="6.24"></line>
          <line class="cls-7" x1="35.43" y1="6.28" x2="35.58" y2="6.44"></line>
          <line class="cls-7" x1="35.23" y1="6.5" x2="35.4" y2="6.63"></line>
          <line class="cls-7" x1="35.07" y1="6.69" x2="35.25" y2="6.81"></line>
          <line class="cls-7" x1="34.94" y1="6.9" x2="35.13" y2="7"></line>
          <line class="cls-7" x1="34.85" y1="7.09" x2="35.06" y2="7.17"></line>
          <line class="cls-7" x1="34.77" y1="7.29" x2="34.97" y2="7.37"></line>
          <line class="cls-7" x1="34.71" y1="7.5" x2="34.91" y2="7.57"></line>
          <line class="cls-7" x1="34.64" y1="7.72" x2="34.86" y2="7.77"></line>
          <line class="cls-7" x1="37.79" y1="5.61" x2="37.74" y2="5.82"></line>
          <line class="cls-7" x1="38.14" y1="5.71" x2="38.09" y2="5.92"></line>
          <line class="cls-7" x1="38.47" y1="5.87" x2="38.36" y2="6.06"></line>
          <line class="cls-7" x1="38.76" y1="6.04" x2="38.63" y2="6.22"></line>
          <line class="cls-7" x1="39.02" y1="6.26" x2="38.86" y2="6.41"></line>
          <line class="cls-7" x1="39.23" y1="6.48" x2="39.07" y2="6.63"></line>
          <line class="cls-7" x1="38.51" y1="5.4" x2="38.23" y2="5.99"></line>
          <line class="cls-7" x1="39.18" y1="5.85" x2="38.75" y2="6.32"></line>
          <line class="cls-7" x1="39.53" y1="6.72" x2="39.25" y2="6.85"></line>
          <line class="cls-7" x1="39.76" y1="7.04" x2="39.45" y2="7.15"></line>
          <line class="cls-7" x1="39.88" y1="7.37" x2="39.55" y2="7.43"></line>
          <line class="cls-7" x1="39.98" y1="7.73" x2="39.64" y2="7.76"></line>
          <line class="cls-8" x1="40.01" y1="8.09" x2="39.67" y2="8.08"></line>
          <line class="cls-8" x1="40.01" y1="8.4" x2="39.67" y2="8.39"></line>
          <line class="cls-7" x1="40" y1="3.7" x2="38.52" y2="6.14"></line>
          <line class="cls-7" x1="34.85" y1="8.2" x2="32.03" y2="7.76"></line>
          <line class="cls-7" x1="39.65" y1="7.94" x2="42.51" y2="7.88"></line>
          <path class="cls-3" d="M39.42,8.16c0,1.19-.96,2.15-2.15,2.15s-2.15-.96-2.15-2.15.96-2.15,2.15-2.15,2.15.96,2.15,2.15"></path>
        </g>
        <g>
          <path class="cls-1" d="M8.15,23.37c.09.63,2.39.78,6,1.02,3.08.2,4.74.3,7.07.05,1.61-.17,2.88-.44,5.08-.98,9.45-2.32,9.64-3.24,12.31-3.06,4.78.32,6.63,2.45,6.88,2.03.18-.3-.36-.41-2.35-2.7-3.08-3.56-2.03-6.18-5.22-9.48-.88-.91-1.77-1.81-3.22-2.22-2.37-.67-2.42,2.03-4.05,2.86-.7.35-4.42,2.23-8.39,5.52-3.36,2.78-3.36,1.61-4.72,2.64-2.84,2.14-1.44,2.29-1.88,2.52-2.8,1.45-7.59,1.31-7.52,1.8"></path>
          <path class="cls-5" d="M8.15,23.37c.09.63,2.39.78,6,1.02,3.08.2,4.74.3,7.07.05,1.61-.17,2.88-.44,5.08-.98,9.45-2.32,9.64-3.24,12.31-3.06,4.78.32,6.63,2.45,6.88,2.03.18-.3-.36-.41-2.35-2.7-3.08-3.56-2.03-6.18-5.22-9.48-.88-.91-1.77-1.81-3.22-2.22-2.37-.67-2.42,2.03-4.05,2.86-.7.35-4.42,2.23-8.39,5.52-3.36,2.78-3.36,1.61-4.72,2.64-2.84,2.14-1.44,2.29-1.88,2.52-2.8,1.45-7.59,1.31-7.52,1.8"></path>
        </g>
        <g>
          <path class="cls-2" d="M17.21,24.41c-.03.59,4.33,1.35,8.7,1.58,1.94.1,4.46.18,7.35-.15,2.34-.27,4.2-.69,4.95-.87,2.81-.68,3.13-1.07,6.16-1.75.47-.11,2.1-.46,4.27-.76,1.19-.16,2.77.04,3.59.01,4.87-.14,4.79.04,4.87-.14.07-.16.43.67-2.37-1.86-.74-.67-.61-.83-1.53-1.75-2.02-2.03-2.82-1.81-4.13-3.36-1.35-1.59-1.12-2.55-2.19-2.91-1.3-.44-2.05.85-3.21.49-1.98-.62-1.29-4.22-3.05-4.63-.15-.03-1.01-.37-2.25.5-2.25,1.6-2.67,2.98-4.03,5.07-1.35,2.07-2.77,3.32-4.38,4.74-1.55,1.37-3.42,3.02-6.16,4.1-3.71,1.47-6.58,1.24-6.6,1.71"></path>
          <path class="cls-6" d="M17.21,24.41c-.03.59,4.33,1.35,8.7,1.58,1.94.1,4.46.18,7.35-.15,2.34-.27,4.2-.69,4.95-.87,2.81-.68,3.13-1.07,6.16-1.75.47-.11,2.1-.46,4.27-.76,1.19-.16,2.77.04,3.59.01,4.87-.14,4.79.04,4.87-.14.07-.16.43.67-2.37-1.86-.74-.67-.61-.83-1.53-1.75-2.02-2.03-2.82-1.81-4.13-3.36-1.35-1.59-1.12-2.55-2.19-2.91-1.3-.44-2.05.85-3.21.49-1.98-.62-1.29-4.22-3.05-4.63-.15-.03-1.01-.37-2.25.5-2.25,1.6-2.67,2.98-4.03,5.07-1.35,2.07-2.77,3.32-4.38,4.74-1.55,1.37-3.42,3.02-6.16,4.1-3.71,1.47-6.58,1.24-6.6,1.71"></path>
        </g>
        <g>
          <path class="cls-1" d="M2.97,30.43c-.39,0-.63-.11-.72-.16-.08-.09-.13-.4-.13-.68.03-.05.13-.06.16-.01.08.27.37.66.73.66.31,0,.46-.22.46-.43,0-.34-.32-.54-.57-.67-.3-.15-.64-.4-.64-.82,0-.48.37-.81.98-.81.14,0,.31.02.48.07.05.02.09.03.14.03.03.09.08.32.08.6-.02.05-.13.05-.16.01-.07-.22-.25-.52-.56-.52-.28,0-.43.18-.43.39,0,.19.17.37.38.48l.28.15c.26.14.59.38.59.85,0,.52-.43.86-1.06.86Z"></path>
          <path class="cls-1" d="M4.65,28.18c0-.39-.03-.42-.22-.46l-.11-.02s-.04-.12,0-.14c.2,0,.41.01.62.01s.41,0,.62-.01c.03.03.03.12,0,.14l-.1.02c-.19.03-.22.07-.22.46v.97c0,.49.05,1.04.7,1.04.54,0,.7-.47.7-1.05v-.51c0-.34-.02-.66-.06-.77-.04-.09-.13-.11-.24-.14l-.11-.02s-.03-.12,0-.14c.23,0,.39.01.57.01.16,0,.31,0,.47-.01.03.03.03.11,0,.14l-.08.02c-.11.03-.19.05-.23.14-.05.11-.06.43-.06.77v.47c0,.4-.04.76-.27,1.02-.19.2-.49.3-.84.3-.32,0-.61-.05-.84-.24-.22-.18-.31-.49-.31-.95v-1.05Z"></path>
          <path class="cls-1" d="M10.11,29.64c0,.27,0,.54,0,.68-.03.05-.15.1-.25.1,0,0-.14-.22-.34-.46l-.97-1.21c-.24-.3-.38-.48-.46-.54-.02.04-.02.11-.02.27v.82c0,.34.02.66.06.77.04.09.13.12.24.14l.12.02s.03.12,0,.15c-.23,0-.4-.01-.57-.01-.16,0-.31,0-.47.01-.03-.03-.03-.11,0-.15h.07c.11-.03.2-.06.23-.15.05-.11.06-.43.06-.77v-1.07c0-.23,0-.3-.03-.36-.03-.07-.09-.12-.24-.14l-.12-.02s-.03-.14.02-.15c.2,0,.41.01.58.01.14,0,.27,0,.35-.01.04.19.32.51.7.96l.35.42c.19.22.31.37.4.46.02-.04.02-.11.02-.19v-.58c0-.34-.02-.66-.06-.77-.04-.09-.13-.12-.24-.14l-.11-.02s-.03-.12,0-.15c.23,0,.39.01.57.01.16,0,.31,0,.47-.01.03.03.03.11,0,.15h-.08c-.11.03-.19.06-.23.15-.05.11-.06.43-.06.77v1.01Z"></path>
          <path class="cls-1" d="M12.09,28.26c0-.42,0-.47-.19-.49l-.11-.02s-.04-.13,0-.15c.32-.02.65-.04,1.05-.04.36,0,.67.05.83.15.24.14.37.35.37.62,0,.38-.25.54-.45.63-.04.02-.04.05-.02.09.28.57.45.88.65,1.05.11.09.22.11.28.12.04.02.04.08.02.11-.07.03-.2.04-.33.04-.39,0-.63-.14-.82-.44-.13-.22-.23-.43-.33-.65-.05-.11-.12-.15-.22-.15-.15,0-.16,0-.16.09v.52c0,.39.03.42.22.45l.11.02s.03.12,0,.15c-.22,0-.42-.01-.62-.01s-.4,0-.62.01c-.03-.03-.03-.13,0-.15l.11-.02c.19-.03.22-.06.22-.45v-1.49ZM12.67,28.79c0,.15.01.16.26.16.15,0,.24-.04.32-.12.07-.07.15-.21.15-.46,0-.38-.22-.62-.55-.62-.17,0-.18.01-.18.22v.82Z"></path>
          <path class="cls-1" d="M15.32,29.41c-.1,0-.11,0-.14.08l-.16.49c-.03.08-.03.12-.03.15,0,.03.05.05.17.07l.13.02s.03.13,0,.15c-.15,0-.3,0-.48-.01-.14,0-.24.01-.43.01-.05-.03-.04-.11-.01-.15h.11c.1-.03.19-.06.26-.22.07-.17.15-.37.27-.67l.38-1.03c.1-.27.17-.41.16-.54.2-.05.36-.25.37-.25.05,0,.08.02.1.08.03.12.08.28.19.58l.57,1.65c.09.25.13.35.28.38l.16.03s.03.12,0,.15c-.2,0-.43-.01-.65-.01s-.38,0-.57.01c-.05-.03-.05-.11,0-.15l.13-.02c.1-.02.11-.05.11-.07,0-.03-.03-.13-.08-.29l-.11-.36c-.02-.07-.05-.08-.2-.08h-.5ZM15.8,29.18c.1,0,.12-.01.08-.12l-.11-.34c-.06-.18-.13-.41-.17-.5-.03.1-.12.32-.18.52l-.11.32c-.04.11-.02.13.09.13h.4Z"></path>
          <path class="cls-1" d="M18.67,29.75c0,.39.03.43.22.45l.17.02s.03.12,0,.15c-.27,0-.48-.01-.68-.01s-.41,0-.66.01c-.03-.03-.03-.12,0-.15l.14-.02c.19-.03.22-.06.22-.45v-.21c0-.21,0-.28-.11-.5l-.5-1.04c-.08-.17-.12-.24-.27-.27l-.14-.03s-.03-.14.02-.15c.19,0,.35.01.59.01s.47,0,.62-.01c.04.02.05.11,0,.15l-.14.03c-.08.02-.1.03-.1.04,0,.03.02.1.11.3l.2.45c.06.14.16.33.21.44.12-.21.25-.48.36-.7.15-.3.2-.43.2-.48,0-.03-.07-.05-.17-.07l-.08-.02s-.04-.13,0-.15c.17,0,.32.01.47.01.16,0,.29,0,.41-.01.05.02.05.12.02.15l-.11.02c-.08.01-.17.04-.22.1-.06.08-.16.23-.37.6l-.27.48c-.11.2-.14.3-.14.54v.3Z"></path>
          <path class="cls-1" d="M20.54,30.43c-.39,0-.63-.11-.72-.16-.08-.09-.13-.4-.13-.68.03-.05.13-.06.16-.01.08.27.37.66.73.66.31,0,.46-.22.46-.43,0-.34-.32-.54-.57-.67-.3-.15-.64-.4-.64-.82,0-.48.37-.81.98-.81.14,0,.31.02.48.07.05.02.09.03.14.03.03.09.08.32.08.6-.02.05-.13.05-.16.01-.07-.22-.25-.52-.56-.52-.28,0-.43.18-.43.39,0,.19.17.37.38.48l.28.15c.26.14.59.38.59.85,0,.52-.43.86-1.06.86Z"></path>
          <path class="cls-1" d="M23.91,28.7c0,.11,0,.13.12.13h.32c.22,0,.27-.03.31-.24l.02-.1s.13-.03.16,0c0,.13-.01.29-.01.45s0,.31.01.44c-.03.04-.13.04-.16,0l-.02-.1c-.04-.2-.09-.24-.31-.24h-.32c-.11,0-.12.01-.12.13v.57c0,.39.03.43.22.45l.16.02s.03.12,0,.15c-.26,0-.47-.01-.67-.01s-.4,0-.66.01c-.03-.03-.03-.12,0-.15l.14-.02c.19-.03.22-.06.22-.45v-1.57c0-.39-.03-.43-.22-.46h-.08s-.04-.14,0-.16c.18,0,.39.01.59.01h.89c.27,0,.51,0,.57-.01,0,.07,0,.38,0,.66-.02.05-.11.05-.16.02-.05-.17-.08-.27-.12-.33-.07-.09-.2-.14-.41-.14h-.33c-.14,0-.14,0-.14.17v.76Z"></path>
          <path class="cls-1" d="M28.33,28.95c0,.92-.62,1.47-1.52,1.47-.85,0-1.46-.56-1.46-1.44,0-.84.62-1.48,1.51-1.48s1.48.59,1.48,1.45ZM26.82,27.7c-.52,0-.8.49-.8,1.19,0,.51.18,1.34.87,1.34.55,0,.77-.54.77-1.22,0-.72-.32-1.31-.84-1.31Z"></path>
          <path class="cls-1" d="M29.01,28.18c0-.39-.03-.42-.22-.46l-.11-.02s-.04-.12,0-.14c.2,0,.41.01.62.01s.41,0,.62-.01c.03.03.03.12,0,.14l-.1.02c-.19.03-.22.07-.22.46v.97c0,.49.05,1.04.7,1.04.54,0,.7-.47.7-1.05v-.51c0-.34-.02-.66-.06-.77-.04-.09-.13-.11-.24-.14l-.11-.02s-.03-.12,0-.14c.23,0,.39.01.57.01.16,0,.31,0,.47-.01.03.03.03.11,0,.14l-.08.02c-.11.03-.19.05-.23.14-.05.11-.06.43-.06.77v.47c0,.4-.04.76-.27,1.02-.19.2-.49.3-.84.3-.32,0-.61-.05-.84-.24-.22-.18-.31-.49-.31-.95v-1.05Z"></path>
          <path class="cls-1" d="M34.46,29.64c0,.27,0,.54,0,.68-.03.05-.15.1-.25.1,0,0-.14-.22-.34-.46l-.97-1.21c-.24-.3-.38-.48-.46-.54-.02.04-.02.11-.02.27v.82c0,.34.02.66.06.77.04.09.13.12.24.14l.12.02s.03.12,0,.15c-.23,0-.4-.01-.57-.01-.16,0-.31,0-.47.01-.03-.03-.03-.11,0-.15h.07c.11-.03.2-.06.23-.15.05-.11.06-.43.06-.77v-1.07c0-.23,0-.3-.03-.36-.03-.07-.09-.12-.24-.14l-.12-.02s-.03-.14.02-.15c.2,0,.41.01.58.01.14,0,.27,0,.35-.01.04.19.32.51.7.96l.35.42c.19.22.31.37.4.46.02-.04.02-.11.02-.19v-.58c0-.34-.02-.66-.06-.77-.04-.09-.13-.12-.24-.14l-.11-.02s-.03-.12,0-.15c.23,0,.39.01.57.01.16,0,.31,0,.47-.01.03.03.03.11,0,.15h-.08c-.11.03-.19.06-.23.15-.05.11-.06.43-.06.77v1.01Z"></path>
          <path class="cls-1" d="M35.39,28.26c0-.4,0-.48-.2-.5h-.08s-.04-.15,0-.16c.35-.02.68-.04,1.13-.04.35,0,.69.03.98.14.55.2.86.7.86,1.22,0,.57-.27,1.02-.76,1.26-.29.14-.63.2-1.07.2-.2,0-.41-.03-.56-.03-.2,0-.42,0-.66.01-.03-.03-.03-.13,0-.15l.13-.02c.19-.03.22-.06.22-.45v-1.49ZM35.99,29.59c0,.23,0,.38.08.47.08.08.2.12.35.12.73,0,.98-.65.98-1.22,0-.76-.4-1.21-1.16-1.21-.11,0-.19.02-.22.05s-.03.11-.03.24v1.54Z"></path>
          <path class="cls-1" d="M39.16,29.41c-.1,0-.11,0-.14.08l-.16.49c-.03.08-.03.12-.03.15,0,.03.05.05.17.07l.13.02s.03.13,0,.15c-.15,0-.3,0-.48-.01-.14,0-.24.01-.43.01-.05-.03-.04-.11-.01-.15h.11c.1-.03.19-.06.26-.22.07-.17.15-.37.27-.67l.38-1.03c.1-.27.17-.41.16-.54.2-.05.36-.25.37-.25.05,0,.08.02.1.08.03.12.08.28.19.58l.57,1.65c.09.25.13.35.28.38l.16.03s.03.12,0,.15c-.2,0-.43-.01-.65-.01s-.38,0-.57.01c-.05-.03-.05-.11,0-.15l.14-.02c.1-.02.11-.05.11-.07,0-.03-.03-.13-.08-.29l-.11-.36c-.02-.07-.05-.08-.2-.08h-.5ZM39.64,29.18c.1,0,.12-.01.08-.12l-.11-.34c-.06-.18-.13-.41-.17-.5-.03.1-.12.32-.18.52l-.11.32c-.04.11-.02.13.09.13h.4Z"></path>
          <path class="cls-1" d="M42.04,27.89c0-.1,0-.12-.1-.12h-.26c-.31,0-.4.17-.52.48-.05.03-.13.02-.16-.04.09-.29.11-.55.14-.72.02-.01.04-.02.06-.02s.04,0,.06.02c.02.07.03.09.35.09h1.57c.28,0,.34,0,.38-.09.02,0,.03-.01.05-.01s.05.02.06.03c-.04.14-.07.49-.06.73-.02.04-.13.05-.16.01-.07-.27-.13-.47-.45-.47h-.25c-.1,0-.11.01-.11.12v1.86c0,.39.03.43.22.45l.17.02s.03.12,0,.15c-.27,0-.49-.01-.67-.01-.2,0-.42,0-.72.01-.03-.03-.03-.12,0-.15l.19-.02c.19-.02.22-.06.22-.45v-1.86Z"></path>
          <path class="cls-1" d="M44.81,29.74c0,.4.03.43.22.46l.12.02s.03.12,0,.15c-.23,0-.43-.01-.63-.01s-.41,0-.64.01c-.03-.03-.03-.12,0-.15l.12-.02c.19-.03.22-.06.22-.46v-1.55c0-.4-.03-.43-.22-.46l-.12-.02s-.03-.12,0-.15c.23,0,.44.01.64.01s.41,0,.64-.01c.03.03.03.12,0,.15l-.12.02c-.19.03-.22.06-.22.46v1.55Z"></path>
          <path class="cls-1" d="M48.49,28.95c0,.92-.62,1.47-1.52,1.47-.85,0-1.46-.56-1.46-1.44,0-.84.62-1.48,1.51-1.48s1.48.59,1.48,1.45ZM46.98,27.7c-.52,0-.8.49-.8,1.19,0,.51.18,1.34.87,1.34.55,0,.77-.54.77-1.22,0-.72-.32-1.31-.84-1.31Z"></path>
          <path class="cls-1" d="M51.45,29.64c0,.27,0,.54,0,.68-.03.05-.15.1-.25.1,0,0-.14-.22-.34-.46l-.97-1.21c-.24-.3-.38-.48-.46-.54-.02.04-.02.11-.02.27v.82c0,.34.02.66.06.77.04.09.13.12.24.14l.12.02s.03.12,0,.15c-.23,0-.4-.01-.57-.01-.16,0-.31,0-.47.01-.03-.03-.03-.11,0-.15h.07c.11-.03.2-.06.23-.15.05-.11.06-.43.06-.77v-1.07c0-.23,0-.3-.03-.36-.03-.07-.09-.12-.24-.14l-.12-.02s-.03-.14.02-.15c.2,0,.41.01.58.01.14,0,.27,0,.35-.01.04.19.32.51.7.96l.35.42c.19.22.31.37.4.46.02-.04.02-.11.02-.19v-.58c0-.34-.02-.66-.06-.77-.04-.09-.13-.12-.24-.14l-.11-.02s-.03-.12,0-.15c.23,0,.39.01.57.01.16,0,.31,0,.47-.01.03.03.03.11,0,.15h-.08c-.11.03-.19.06-.23.15-.05.11-.06.43-.06.77v1.01Z"></path>
          <path class="cls-1" d="M54.35,30.97s-.02.08-.07.08c-.66-.36-.97-1.11-.97-1.83s.31-1.47.97-1.83c.05,0,.07.04.07.08-.46.41-.63,1.13-.63,1.75s.17,1.34.63,1.75Z"></path>
          <path class="cls-1" d="M55.38,30.43c-.39,0-.63-.11-.72-.16-.08-.09-.13-.4-.13-.68.03-.05.13-.06.16-.01.08.27.37.66.73.66.31,0,.46-.22.46-.43,0-.34-.32-.54-.57-.67-.3-.15-.64-.4-.64-.82,0-.48.37-.81.98-.81.14,0,.31.02.48.07.05.02.09.03.14.03.03.09.08.32.08.6-.02.05-.13.05-.16.01-.07-.22-.25-.52-.56-.52-.28,0-.43.18-.43.39,0,.19.17.37.38.48l.28.15c.26.14.59.38.59.85,0,.52-.43.86-1.06.86Z"></path>
          <path class="cls-1" d="M57.09,28.26c0-.42,0-.47-.19-.49l-.11-.02s-.04-.13,0-.15c.32-.02.65-.04,1.05-.04.36,0,.67.05.83.15.24.14.37.35.37.62,0,.38-.25.54-.45.63-.04.02-.04.05-.02.09.28.57.45.88.65,1.05.11.09.22.11.28.12.04.02.04.08.02.11-.07.03-.2.04-.33.04-.39,0-.63-.14-.82-.44-.14-.22-.23-.43-.33-.65-.05-.11-.12-.15-.22-.15-.15,0-.16,0-.16.09v.52c0,.39.03.42.22.45l.11.02s.03.12,0,.15c-.22,0-.42-.01-.62-.01s-.4,0-.62.01c-.03-.03-.03-.13,0-.15l.11-.02c.19-.03.22-.06.22-.45v-1.49ZM57.67,28.79c0,.15.01.16.26.16.15,0,.24-.04.32-.12.07-.07.15-.21.15-.46,0-.38-.22-.62-.55-.62-.17,0-.18.01-.18.22v.82Z"></path>
          <path class="cls-1" d="M60.54,28.7c0,.11,0,.13.12.13h.32c.22,0,.27-.03.31-.24l.02-.1s.14-.03.16,0c0,.13-.01.29-.01.45s0,.31.01.44c-.03.04-.13.04-.16,0l-.02-.1c-.04-.2-.09-.24-.31-.24h-.32c-.11,0-.12.01-.12.13v.57c0,.39.03.43.22.45l.16.02s.03.12,0,.15c-.26,0-.47-.01-.67-.01s-.4,0-.66.01c-.03-.03-.03-.12,0-.15l.14-.02c.19-.03.22-.06.22-.45v-1.57c0-.39-.03-.43-.22-.46h-.08s-.04-.14,0-.16c.18,0,.39.01.59.01h.89c.27,0,.51,0,.57-.01,0,.07,0,.38,0,.66-.02.05-.11.05-.16.02-.05-.17-.08-.27-.12-.33-.07-.09-.2-.14-.41-.14h-.33c-.14,0-.14,0-.14.17v.76Z"></path>
          <path class="cls-1" d="M61.85,27.47s.02-.08.07-.08c.66.36.97,1.11.97,1.83s-.31,1.47-.97,1.83c-.05,0-.07-.04-.07-.08.46-.41.63-1.13.63-1.75s-.17-1.34-.63-1.75Z"></path>
        </g>
        <g>
          <path class="cls-4" d="M14.81,32.58v.39h-.14c-.02-.08-.05-.15-.09-.2-.04-.05-.08-.08-.12-.1s-.1-.03-.17-.03c-.1,0-.18.03-.26.1s-.14.16-.18.29-.07.29-.07.47.02.34.05.48c.04.13.09.23.16.3.07.07.16.1.26.1.08,0,.14-.01.19-.03.05-.02.09-.06.12-.11.03-.05.07-.12.1-.21h.14v.41c-.09.02-.18.04-.27.05-.09.01-.2.02-.31.02-.24,0-.42-.08-.55-.24s-.18-.41-.18-.73c0-.2.03-.38.1-.53.06-.15.16-.27.28-.35s.27-.13.44-.13c.09,0,.17,0,.24.01.07,0,.16.03.25.05Z"></path>
          <path class="cls-4" d="M15.92,34.5c-.11,0-.22-.02-.31-.06-.09-.04-.17-.1-.24-.17-.07-.08-.12-.18-.15-.3-.04-.12-.05-.27-.05-.44,0-.21.03-.39.1-.54s.16-.27.28-.35c.12-.08.26-.12.42-.12.17,0,.31.04.43.11.12.07.2.18.26.33.06.14.09.32.09.53,0,.22-.03.41-.1.56s-.16.27-.28.34c-.12.08-.26.11-.42.11ZM15.45,33.48c0,.29.04.51.13.66s.21.23.37.23c.1,0,.19-.03.26-.1.07-.07.13-.16.16-.29s.05-.28.05-.44c0-.21-.02-.38-.06-.51-.04-.14-.1-.23-.17-.3s-.16-.09-.25-.09c-.09,0-.16.02-.22.06-.06.04-.11.1-.15.17-.04.07-.07.16-.09.27-.02.1-.03.22-.03.35Z"></path>
          <path class="cls-4" d="M19.14,32.61s-.07.02-.09.03c-.02.01-.03.02-.04.04-.01.02-.02.04-.02.07,0,.03,0,.08,0,.14v1.23c0,.06,0,.11,0,.14,0,.03.01.05.02.07,0,.02.02.03.04.04s.05.02.09.03v.07h-.59v-.07c.05-.01.09-.03.11-.05s.04-.04.04-.08.01-.09.01-.16v-.54c0-.14,0-.29,0-.43,0-.15,0-.25.01-.3h-.02l-.56,1.41h-.16l-.52-1.43h-.02c0,.06,0,.16.01.31,0,.15,0,.31,0,.47v.52c0,.06,0,.11,0,.14,0,.03.01.05.02.07.01.02.02.03.04.04.02.01.05.02.09.03v.07h-.52v-.07c.06-.02.1-.03.12-.05.02-.02.03-.04.04-.08,0-.03,0-.09,0-.16v-1.23c0-.07,0-.11,0-.14,0-.03-.01-.05-.02-.07s-.03-.03-.04-.04c-.02-.01-.05-.02-.09-.03v-.07h.51l.5,1.38.55-1.38h.48v.07Z"></path>
          <path class="cls-4" d="M19.96,34.12c0,.06,0,.1,0,.13,0,.03.02.06.03.08.01.02.03.03.05.05.02.01.06.02.1.03v.07h-.62v-.07c.06-.02.1-.03.12-.05.02-.02.03-.04.04-.08,0-.03,0-.09,0-.16v-1.23c0-.07,0-.11,0-.14,0-.03-.01-.05-.02-.07s-.03-.03-.04-.04c-.02-.01-.05-.02-.09-.03v-.07h.7c.22,0,.39.04.5.13.11.08.16.21.16.39,0,.1-.02.19-.05.27s-.08.14-.14.19-.14.09-.22.11-.17.03-.27.03c-.11,0-.19,0-.24,0v.47ZM19.96,33.53h.16c.11,0,.2-.01.27-.04.07-.03.12-.07.16-.14.04-.06.06-.15.06-.26,0-.08-.01-.15-.03-.2s-.05-.1-.09-.13c-.04-.03-.08-.06-.14-.07s-.11-.02-.17-.02c-.09,0-.16,0-.21,0v.86Z"></path>
          <path class="cls-4" d="M21.98,34.48v-.07s.08-.02.11-.03.04-.03.05-.05.02-.05.02-.08c0-.03,0-.07-.01-.1,0-.04-.02-.08-.03-.13l-.05-.18h-.66l-.05.14c-.02.07-.04.12-.05.16s-.01.07-.01.1c0,.06.01.1.04.13.03.03.07.04.13.05v.07h-.61v-.07c.05,0,.1-.04.14-.09.04-.05.08-.13.11-.23l.59-1.57h.22l.48,1.58c.02.07.04.13.06.17.02.04.04.07.06.09s.06.04.1.05v.07h-.66ZM21.43,33.71h.59l-.27-.92-.32.92Z"></path>
          <path class="cls-4" d="M22.96,34.04c.02.08.04.15.08.2s.07.08.13.11.12.03.2.03c.11,0,.2-.03.26-.09s.09-.14.09-.25c0-.07-.01-.13-.04-.18s-.06-.09-.12-.14-.14-.09-.26-.15c-.11-.05-.2-.11-.26-.16-.06-.05-.11-.11-.14-.17-.03-.06-.05-.13-.05-.2,0-.11.02-.2.07-.28.05-.08.12-.14.22-.18s.21-.06.33-.06c.07,0,.14,0,.21.01.07,0,.15.02.26.05v.38h-.14c-.02-.08-.05-.15-.08-.19s-.07-.08-.12-.1c-.04-.02-.1-.03-.17-.03-.06,0-.12.01-.17.03-.05.02-.09.06-.12.1-.03.05-.04.1-.04.16,0,.07.01.12.04.17.02.05.06.09.11.13s.13.08.23.13c.12.06.22.12.28.17.07.05.12.11.16.18.04.07.06.14.06.23,0,.1-.02.18-.05.25s-.07.12-.13.17c-.06.04-.12.07-.2.09-.08.02-.16.03-.25.03-.15,0-.32-.03-.51-.08v-.39h.14Z"></path>
          <path class="cls-4" d="M24.45,34.04c.02.08.04.15.08.2s.07.08.13.11.12.03.2.03c.11,0,.2-.03.26-.09s.09-.14.09-.25c0-.07-.01-.13-.04-.18s-.06-.09-.12-.14-.14-.09-.26-.15c-.11-.05-.2-.11-.26-.16-.06-.05-.11-.11-.14-.17-.03-.06-.05-.13-.05-.2,0-.11.02-.2.07-.28.05-.08.12-.14.22-.18s.21-.06.33-.06c.07,0,.14,0,.21.01.07,0,.15.02.26.05v.38h-.14c-.02-.08-.05-.15-.08-.19s-.07-.08-.12-.1c-.04-.02-.1-.03-.17-.03-.06,0-.12.01-.17.03-.05.02-.09.06-.12.1-.03.05-.04.1-.04.16,0,.07.01.12.04.17.02.05.06.09.11.13s.13.08.23.13c.12.06.22.12.28.17.07.05.12.11.16.18.04.07.06.14.06.23,0,.1-.02.18-.05.25s-.07.12-.13.17c-.06.04-.12.07-.2.09-.08.02-.16.03-.25.03-.15,0-.32-.03-.51-.08v-.39h.14Z"></path>
          <path class="cls-4" d="M26.24,34.12c0,.06,0,.11,0,.14,0,.03.01.05.02.07,0,.02.02.03.04.04s.05.02.09.03v.07h-.6v-.07c.06-.02.1-.03.12-.05.02-.02.03-.04.04-.08,0-.03,0-.09,0-.16v-1.23c0-.07,0-.11,0-.14,0-.03-.01-.05-.02-.07s-.03-.03-.04-.04c-.02-.01-.05-.02-.09-.03v-.07h.6v.07s-.07.02-.09.03c-.02.01-.03.02-.04.04-.01.02-.02.04-.02.07,0,.03,0,.08,0,.14v1.23Z"></path>
          <path class="cls-4" d="M27.55,34.5c-.11,0-.22-.02-.31-.06-.09-.04-.17-.1-.24-.17-.07-.08-.12-.18-.15-.3-.04-.12-.05-.27-.05-.44,0-.21.03-.39.1-.54s.16-.27.28-.35c.12-.08.26-.12.42-.12.17,0,.31.04.43.11.12.07.2.18.26.33.06.14.09.32.09.53,0,.22-.03.41-.1.56s-.16.27-.28.34c-.12.08-.26.11-.42.11ZM27.09,33.48c0,.29.04.51.13.66s.21.23.37.23c.1,0,.19-.03.26-.1.07-.07.13-.16.16-.29s.05-.28.05-.44c0-.21-.02-.38-.06-.51-.04-.14-.1-.23-.17-.3s-.16-.09-.25-.09c-.09,0-.16.02-.22.06-.06.04-.11.1-.15.17-.04.07-.07.16-.09.27-.02.1-.03.22-.03.35Z"></path>
          <path class="cls-4" d="M29.88,33.71c.03.06.06.11.09.15s.05.09.07.14h.02c0-.06,0-.17-.01-.34,0-.17,0-.33,0-.47v-.3c0-.07,0-.11,0-.14s-.01-.05-.02-.07c0-.02-.02-.03-.04-.04-.02-.01-.05-.02-.09-.03v-.07h.51v.07s-.07.02-.09.03c-.02,0-.03.02-.04.04-.01.02-.02.04-.02.07s0,.08,0,.15v1.59h-.18l-.79-1.33c-.05-.08-.08-.14-.11-.18s-.04-.08-.06-.11h-.02c0,.07.01.2.01.4,0,.19,0,.38,0,.57v.29c0,.06,0,.11,0,.14,0,.03.01.05.02.07.01.02.02.03.04.04.02.01.05.02.09.03v.07h-.52v-.07c.06-.02.1-.03.12-.05.02-.02.03-.04.04-.08,0-.03,0-.09,0-.16v-1.23c0-.07,0-.11,0-.14,0-.03-.01-.05-.02-.07s-.03-.03-.04-.04c-.02-.01-.05-.02-.09-.03v-.07h.44l.7,1.17Z"></path>
          <path class="cls-4" d="M31.67,34.48v-.07s.08-.02.11-.03.04-.03.05-.05.02-.05.02-.08c0-.03,0-.07-.01-.1,0-.04-.02-.08-.03-.13l-.05-.18h-.66l-.05.14c-.02.07-.04.12-.05.16s-.01.07-.01.1c0,.06.01.1.04.13.03.03.07.04.13.05v.07h-.61v-.07c.05,0,.1-.04.14-.09.04-.05.08-.13.11-.23l.59-1.57h.22l.48,1.58c.02.07.04.13.06.17.02.04.04.07.06.09s.06.04.1.05v.07h-.66ZM31.12,33.71h.59l-.27-.92-.32.92Z"></path>
          <path class="cls-4" d="M32.32,32.54h1.54v.49h-.14c-.02-.08-.04-.15-.06-.19s-.04-.08-.06-.11-.05-.04-.07-.05c-.03-.01-.07-.02-.12-.02h-.18v1.46c0,.06,0,.1,0,.13s.02.06.03.08c.01.02.03.03.05.05.02.01.06.02.1.03v.07h-.65v-.07s.05-.01.08-.02.04-.02.05-.03c.01-.01.03-.02.03-.04s.02-.04.02-.07c0-.03,0-.07,0-.13v-1.46h-.18s-.08,0-.11.01c-.03,0-.06.03-.08.05-.02.03-.05.07-.07.12-.02.05-.04.11-.06.19h-.14v-.49Z"></path>
          <path class="cls-4" d="M35.49,32.54v.43h-.14s-.03-.09-.04-.12-.03-.06-.05-.09-.03-.04-.05-.06-.04-.02-.07-.03c-.03,0-.06,0-.1,0h-.45v.74h.3s.07,0,.1-.02c.02-.01.04-.03.06-.06.02-.03.03-.07.04-.13h.13v.55h-.13c-.01-.06-.03-.1-.04-.13s-.04-.05-.06-.06c-.02-.01-.06-.02-.1-.02h-.3v.82h.44s.08,0,.11-.01c.03,0,.05-.02.07-.04.02-.02.04-.04.06-.08s.03-.06.04-.1c.01-.03.03-.08.04-.15h.14l-.03.5h-1.32v-.07c.06-.02.1-.03.12-.05.02-.02.03-.04.04-.08,0-.03,0-.09,0-.16v-1.23c0-.07,0-.11,0-.14,0-.03-.01-.05-.02-.07s-.03-.03-.04-.04c-.02-.01-.05-.02-.09-.03v-.07h1.33Z"></path>
          <path class="cls-4" d="M37.73,32.9l-.45,1.59h-.23l-.41-1.54c-.02-.06-.03-.12-.05-.16s-.03-.07-.04-.1c-.01-.02-.03-.04-.05-.05s-.04-.02-.07-.03v-.07h.61v.07c-.06.01-.1.03-.12.05-.02.02-.03.05-.03.1,0,.03,0,.07.01.12s.02.1.04.15l.29,1.12.46-1.61h.24l.37,1.61.34-1.08c.04-.13.06-.23.06-.28s-.01-.1-.04-.13c-.02-.03-.06-.04-.12-.05v-.07h.56v.07s-.05.02-.07.03c-.02.01-.03.03-.05.05-.02.02-.03.05-.05.09-.02.04-.04.1-.06.17l-.52,1.53h-.2l-.39-1.59Z"></path>
          <path class="cls-4" d="M39.73,34.12c0,.06,0,.11,0,.14,0,.03.01.05.02.07,0,.02.02.03.04.04s.05.02.09.03v.07h-.6v-.07c.06-.02.1-.03.12-.05.02-.02.03-.04.04-.08,0-.03,0-.09,0-.16v-1.23c0-.07,0-.11,0-.14,0-.03-.01-.05-.02-.07s-.03-.03-.04-.04c-.02-.01-.05-.02-.09-.03v-.07h.6v.07s-.07.02-.09.03c-.02.01-.03.02-.04.04-.01.02-.02.04-.02.07,0,.03,0,.08,0,.14v1.23Z"></path>
          <path class="cls-4" d="M40.2,32.54h1.54v.49h-.14c-.02-.08-.04-.15-.06-.19s-.04-.08-.06-.11-.05-.04-.07-.05c-.03-.01-.07-.02-.12-.02h-.18v1.46c0,.06,0,.1,0,.13s.02.06.03.08c.01.02.03.03.05.05.02.01.06.02.1.03v.07h-.65v-.07s.05-.01.08-.02.04-.02.05-.03c.01-.01.03-.02.03-.04s.02-.04.02-.07c0-.03,0-.07,0-.13v-1.46h-.18s-.08,0-.11.01c-.03,0-.06.03-.08.05-.02.03-.05.07-.07.12-.02.05-.04.11-.06.19h-.14v-.49Z"></path>
          <path class="cls-4" d="M43.54,34.12c0,.05,0,.1,0,.12s0,.05.01.07.01.03.02.04.02.02.04.03.04.02.08.03v.07h-.6v-.07c.05-.01.09-.03.11-.04s.04-.04.04-.07.01-.09.01-.17v-.6h-.79v.6c0,.06,0,.11,0,.14,0,.03.01.05.02.07.01.02.02.03.04.04.02.01.05.02.09.03v.07h-.6v-.07c.06-.02.1-.03.12-.05.02-.02.03-.04.04-.08,0-.03,0-.09,0-.16v-1.23c0-.07,0-.11,0-.14,0-.03-.01-.05-.02-.07s-.03-.03-.04-.04c-.02-.01-.05-.02-.09-.03v-.07h.6v.07s-.07.02-.09.03c-.02.01-.03.02-.04.04-.01.02-.02.04-.02.07s0,.08,0,.14v.5h.79v-.5c0-.08,0-.14-.01-.17s-.02-.05-.04-.07-.06-.03-.11-.05v-.07h.6v.07c-.05.01-.09.03-.11.04s-.04.04-.04.07-.01.09-.01.17v1.23Z"></path>
          <path class="cls-4" d="M46.26,34.12c0,.05,0,.1,0,.12s0,.05.01.07.01.03.02.04.02.02.04.03.04.02.08.03v.07h-.6v-.07c.05-.01.09-.03.11-.04s.04-.04.04-.07.01-.09.01-.17v-.6h-.79v.6c0,.06,0,.11,0,.14,0,.03.01.05.02.07.01.02.02.03.04.04.02.01.05.02.09.03v.07h-.6v-.07c.06-.02.1-.03.12-.05.02-.02.03-.04.04-.08,0-.03,0-.09,0-.16v-1.23c0-.07,0-.11,0-.14,0-.03-.01-.05-.02-.07s-.03-.03-.04-.04c-.02-.01-.05-.02-.09-.03v-.07h.6v.07s-.07.02-.09.03c-.02.01-.03.02-.04.04-.01.02-.02.04-.02.07s0,.08,0,.14v.5h.79v-.5c0-.08,0-.14-.01-.17s-.02-.05-.04-.07-.06-.03-.11-.05v-.07h.6v.07c-.05.01-.09.03-.11.04s-.04.04-.04.07-.01.09-.01.17v1.23Z"></path>
          <path class="cls-4" d="M47.57,34.5c-.11,0-.22-.02-.31-.06-.09-.04-.17-.1-.24-.17-.07-.08-.12-.18-.15-.3-.04-.12-.05-.27-.05-.44,0-.21.03-.39.1-.54s.16-.27.28-.35c.12-.08.26-.12.42-.12.17,0,.31.04.43.11.12.07.2.18.26.33.06.14.09.32.09.53,0,.22-.03.41-.1.56s-.16.27-.28.34c-.12.08-.26.11-.42.11ZM47.11,33.48c0,.29.04.51.13.66s.21.23.37.23c.1,0,.19-.03.26-.1.07-.07.13-.16.16-.29s.05-.28.05-.44c0-.21-.02-.38-.06-.51-.04-.14-.1-.23-.17-.3s-.16-.09-.25-.09c-.09,0-.16.02-.22.06-.06.04-.11.1-.15.17-.04.07-.07.16-.09.27-.02.1-.03.22-.03.35Z"></path>
          <path class="cls-4" d="M49.19,34.12c0,.06,0,.1,0,.13,0,.03.02.06.03.08.01.02.03.03.05.05.02.01.06.02.1.03v.07h-.62v-.07c.06-.02.1-.03.12-.05.02-.02.03-.04.04-.08,0-.03,0-.09,0-.16v-1.23c0-.07,0-.11,0-.14,0-.03-.01-.05-.02-.07s-.03-.03-.04-.04c-.02-.01-.05-.02-.09-.03v-.07h.7c.22,0,.39.04.5.13.11.08.16.21.16.39,0,.1-.02.19-.05.27s-.08.14-.14.19-.14.09-.22.11-.17.03-.27.03c-.11,0-.19,0-.24,0v.47ZM49.19,33.53h.16c.11,0,.2-.01.27-.04.07-.03.12-.07.16-.14.04-.06.06-.15.06-.26,0-.08-.01-.15-.03-.2s-.05-.1-.09-.13c-.04-.03-.08-.06-.14-.07s-.11-.02-.17-.02c-.09,0-.16,0-.21,0v.86Z"></path>
          <path class="cls-4" d="M51.79,32.54v.43h-.14s-.03-.09-.04-.12-.03-.06-.05-.09-.03-.04-.05-.06-.04-.02-.07-.03c-.03,0-.06,0-.1,0h-.45v.74h.3s.07,0,.1-.02c.02-.01.04-.03.06-.06.02-.03.03-.07.04-.13h.13v.55h-.13c-.01-.06-.03-.1-.04-.13s-.04-.05-.06-.06c-.02-.01-.06-.02-.1-.02h-.3v.82h.44s.08,0,.11-.01c.03,0,.05-.02.07-.04.02-.02.04-.04.06-.08s.03-.06.04-.1c.01-.03.03-.08.04-.15h.14l-.03.5h-1.32v-.07c.06-.02.1-.03.12-.05.02-.02.03-.04.04-.08,0-.03,0-.09,0-.16v-1.23c0-.07,0-.11,0-.14,0-.03-.01-.05-.02-.07s-.03-.03-.04-.04c-.02-.01-.05-.02-.09-.03v-.07h1.33Z"></path>
        </g>
      </g>
    </g>
  </g>
</svg></svg></g></g></svg>